PathFileType	4	(X/Y/Z)	C:\Users\WrightLab\Desktop\Jo\P1_boxCal33.trc
DataRate	CameraRate	NumFrames	NumMarkers	Units	OrigDataRate	OrigDataStartFrame	OrigNumFrames
100.00	100.00	       21	19	mm	100.00	469	       624
Frame#	Time	Headset_Front			Headset_Back			Headset_Left			Headset_Right			Left_Shoulder			Right_Shoulder			Sternum			C7			Left Elbow			Right Elbow			Left Wrist			Right Wrist			Left ASIS			Right ASIS			S2			Left Knee			Right Knee			Left Ankle			Right Ankle			
		X1	Y1	Z1	X2	Y2	Z2	X3	Y3	Z3	X4	Y4	Z4	X5	Y5	Z5	X6	Y6	Z6	X7	Y7	Z7	X8	Y8	Z8	X9	Y9	Z9	X10	Y10	Z10	X11	Y11	Z11	X12	Y12	Z12	X13	Y13	Z13	X14	Y14	Z14	X15	Y15	Z15	X16	Y16	Z16	X17	Y17	Z17	X18	Y18	Z18	X19	Y19	Z19	

469	4.680	-85.91127	1516.26880	2111.85620	-46.45938	1283.01477	2085.80273	-197.01706	1478.71643	2231.32397				-44.22918	1290.72363	2291.53760	-246.97998	1276.18311	1970.43848	-273.86301	1188.55774	2190.26196				50.04354	975.76727	2331.15234				30.27303	797.10693	2442.02319	-411.12067	800.51855	1977.49365	-248.76505	911.59625	2300.03174							-208.75803	523.49567	2432.04077	-178.73233	455.09711	2008.13440	-283.73660	189.58893	2554.76196	-98.50300	662.11200	1690.44275	
470	4.690	-90.99948	1514.60083	2121.48657	-51.11978	1281.50500	2097.21924	-204.96730	1478.59949	2238.17432				-53.95518	1290.71680	2303.14600	-248.45009	1274.79749	1977.54858	-281.58249	1188.34998	2197.92456				39.88687	974.92072	2343.43433				17.10670	795.16125	2453.07251	-409.48535	796.97089	1972.07190	-254.91623	904.91241	2300.36890							-222.08287	521.00012	2438.47046	-180.31776	456.93655	2006.73108	-291.37119	184.67941	2558.73462	-105.68971	658.42999	1698.13733	
471	4.700	-96.34219	1513.28040	2130.70703	-55.68853	1280.32727	2108.72168	-213.08940	1478.13062	2244.71021				-63.96552	1290.42712	2315.36768	-250.01959	1273.29224	1984.91736	-288.52634	1186.97412	2203.39233				28.76488	974.87177	2356.14673				3.91376	793.40546	2463.84399	-407.25073	793.24780	1967.76990	-268.30704	911.00421	2314.74048	3.65017	896.57819	2116.01904				-233.50395	518.16394	2444.85181	-182.09056	457.21704	2012.87878	-298.19333	180.77989	2562.37476	-370.67303	167.38489	2542.33643	
472	4.710	-101.65398	1511.95398	2139.45703	-60.63754	1279.63965	2121.28516	-221.30174	1477.71423	2251.96777				-73.96484	1290.22668	2326.98828	-251.34010	1271.98132	1991.46704	-296.38660	1187.06970	2210.51196				18.66330	974.56909	2369.47144				-9.84840	793.26422	2476.44580	-404.86737	790.60522	1963.36267	-278.33112	910.22815	2322.02637	-1.56933	895.43286	2131.22363				-245.71202	514.73584	2450.42310	-183.79591	457.45279	2018.45007	-302.77734	175.15643	2566.00293	-376.19983	159.52563	2543.66675	
473	4.720	-106.94169	1510.85303	2147.50122	-65.47328	1278.37732	2134.84155	-229.62935	1477.53198	2257.93652				-84.27557	1290.69873	2338.51196	-252.12894	1270.89734	1998.79175	-303.71786	1187.41345	2217.40405				7.59610	974.29175	2380.95459							-402.65424	788.27185	1957.32166	-289.12811	910.74719	2329.14111	-7.22067	894.35992	2144.79175				-258.48419	512.98163	2458.04468	-185.95438	458.39877	2022.69910	-345.83405	93.03475	2486.51855				
474	4.730	-112.29287	1510.51184	2156.14551	-70.21404	1276.74597	2146.31104	-237.70775	1477.96790	2263.81543				-95.18419	1291.21350	2350.95264	-252.86473	1270.02002	2004.22668	-311.13495	1187.26111	2223.82227				-3.38094	975.26666	2395.04248	-358.57550	903.34937	2144.82959	-38.29591	792.95319	2499.90991	-399.03091	785.04889	1953.47034	-300.53268	911.37469	2337.11426	-13.57353	893.19427	2159.03271				-269.72070	509.52917	2462.92749	-188.38235	461.10101	2026.44128	-315.54416	167.97868	2569.16016				
475	4.740	-118.44972	1510.97205	2165.55298	-75.19612	1276.45410	2160.74854	-246.92014	1479.39014	2270.05762				-106.35811	1292.06677	2363.25269	-253.78387	1269.14063	2011.26733	-318.78717	1187.20801	2229.26538				-14.72676	975.03345	2407.41626	-364.70526	902.97083	2149.75879	-52.71428	793.13458	2512.27905	-395.09616	783.34802	1949.96082	-310.96793	910.68121	2343.13501	-19.91859	892.38293	2174.51147				-281.69434	508.92276	2469.76245	-191.08748	463.26654	2029.65552	-323.81796	167.19234	2572.57324				
476	4.750	-124.30074	1511.98291	2175.10840	-80.14603	1276.51819	2173.84644	-255.81194	1481.62817	2276.02417				-117.70622	1293.03992	2375.22290	-254.70551	1268.98767	2018.07397	-326.54401	1188.79724	2235.93335				-25.74317	976.20160	2420.79736	-370.34454	902.39093	2155.99609	-67.35608	792.93134	2524.37256	-391.12637	782.35046	1944.95801	-322.22009	911.15894	2350.01343	-30.06217	892.10059	2186.63550							-193.96571	463.89297	2036.17590	-331.67722	167.19693	2576.16309				
477	4.760				-86.55118	1277.00989	2187.38745	-265.16910	1483.98792	2281.73413				-129.40833	1294.60547	2387.06470	-255.62979	1269.53662	2023.46716	-334.58914	1190.07764	2242.22339				-37.98523	976.92053	2434.47119	-376.29800	903.11493	2161.43848	-82.36947	793.49945	2536.85620	-386.13724	781.24188	1942.12939	-333.56439	911.99921	2356.83984	-37.22561	891.41626	2202.80933	-307.07239	510.51001	2480.33960				-196.40399	462.77893	2046.73901	-338.49448	166.64584	2580.35815				
478	4.770	-136.45123	1514.62866	2194.32104	-92.93834	1278.33142	2198.97388							-141.25201	1296.52795	2398.71460				-342.25784	1192.19434	2248.44995				-50.03632	979.23920	2448.52197	-381.23975	903.97009	2167.74219	-97.86481	795.35052	2550.12573	-379.63687	781.05933	1937.58936	-344.55203	912.71161	2362.70581	-45.23117	892.05804	2219.92261	-320.21472	513.19666	2484.86938				-199.59245	464.64786	2050.61743	-345.00412	165.98816	2584.68213	43.13498	146.11908	2040.37292	
479	4.780	-142.46742	1515.62073	2203.80103	-98.98707	1280.02771	2211.76563							-153.38927	1298.50537	2410.16626				-349.63190	1193.54724	2253.94604				-62.98651	981.08820	2462.02905	-386.44357	904.37769	2172.30371	-113.39575	797.40283	2563.06030	-373.47989	782.08173	1933.37720	-355.66333	914.64667	2369.52490	-54.67884	893.84595	2233.41528	-333.22534	517.81305	2490.64771				-202.49663	464.15424	2058.52246	-351.47330	164.71034	2587.68726				
480	4.790	-148.91513	1517.41956	2213.79761	-104.86478	1282.46777	2225.16040							-165.39961	1301.14978	2420.60278										-76.44537	984.48657	2476.38037	-391.31265	906.71149	2178.18994	-129.77997	799.42810	2574.94092	-365.97623	783.66101	1934.01270	-366.59421	916.53564	2375.53467	-62.45763	896.17487	2244.45435	-345.72556	521.37134	2496.44531				-205.51218	463.91925	2069.75464	-356.39099	162.73627	2590.08032				
481	4.800	-155.29567	1519.00317	2222.99121										-177.84689	1303.65601	2430.92017										-90.13075	987.18274	2490.47217	-396.06491	908.30804	2182.30786	-146.00739	802.94379	2588.10938	-357.96390	785.84167	1933.66956	-377.73575	919.69897	2381.67261	-68.22556	899.94849	2254.21191	-358.05597	524.36469	2501.28320				-209.25981	463.01251	2076.49268	-359.70663	160.49582	2591.31177				
482	4.810	-161.58824	1520.90869	2232.00952										-190.70108	1306.35156	2440.75024										-104.33823	990.68384	2504.17480	-400.74255	910.71332	2186.44775	-163.25496	806.13080	2599.81982	-349.54358	789.33508	1933.31750				-73.99642	903.59717	2265.26343	-369.33740	526.85669	2506.54224				-215.64484	463.21375	2084.23828	-361.64047	157.57283	2590.66870				
483	4.820	-168.25499	1522.93848	2241.69409										-203.65558	1308.95862	2450.18018										-119.24086	994.47388	2518.35156	-404.27429	912.83472	2190.95752	-181.08609	810.54425	2613.39722	-341.05331	793.12909	1933.71045				-79.79356	907.28253	2275.33594	-379.89737	528.32611	2512.05981				-222.51988	463.17163	2093.14819	-362.48038	155.20906	2590.19116				
484	4.830	-174.81340	1525.11230	2251.02417										-216.71066	1311.80811	2458.85669										-133.91113	998.10577	2531.05591	-407.77640	914.80780	2193.86011	-198.56906	814.81232	2625.69824	-332.63864	797.37958	1934.15881				-86.19606	911.19019	2286.12109	-388.92404	529.38702	2517.34717				-229.32350	463.59491	2097.07129	-363.40176	155.38254	2591.02026				
485	4.840	-181.46594	1527.16321	2260.38818										-229.77534	1314.21277	2466.87329										-148.78481	1001.65295	2543.89941	-411.60434	917.66949	2197.03638	-216.79033	818.68164	2637.96777	-324.33423	801.75281	1937.11963				-92.37534	915.16840	2297.88086	-396.88806	530.05536	2523.24561				-235.91609	465.07339	2103.85986	-364.21594	155.59984	2591.81372				
486	4.850	-188.43788	1529.75830	2269.72388										-242.80678	1316.61279	2474.32031										-163.88817	1005.30890	2556.34399	-413.83939	919.19135	2198.38818				-316.20135	805.99402	1940.21399				-98.82719	918.73309	2307.99316	-402.96292	530.90991	2530.22681				-241.91342	466.30011	2112.71606	-364.47955	154.88721	2591.38232				
487	4.860	-195.00356	1532.66113	2278.80054																						-178.90915	1009.31970	2568.92676	-417.66721	922.02142	2200.20410				-308.37079	809.33765	1945.30884				-105.24876	921.97626	2318.29956	-407.63727	529.09216	2534.67017				-247.62311	468.09457	2116.10327	-365.26752	154.50706	2592.81323				
488	4.870	-201.55148	1535.21497	2288.08984																						-194.29887	1012.76672	2580.85913	-419.44318	923.63293	2200.34351				-300.87094	813.59509	1946.49084				-111.47844	924.55475	2329.67065	-411.84528	527.77704	2540.43628				-252.59891	471.48883	2122.10742	-365.39221	153.66562	2592.46094				
489	4.880	-208.33759	1537.77209	2297.46191																						-209.68983	1016.51257	2592.39233	-422.57449	925.66534	2201.96387				-294.34143	816.76593	1952.55139							-414.82892	526.43683	2544.00366				-256.33289	473.58524	2129.29541	-365.60175	153.16304	2592.08228				
